<svg width="18" height="12" viewBox="0 0 18 12" fill="none" xmlns="http://www.w3.org/2000/svg">
<path fill-rule="evenodd" clip-rule="evenodd" d="M16.3392 11.3338H15.3393C14.7879 11.3338 14.3394 10.8852 14.3394 10.3339V1.66689C14.3394 1.11554 14.7879 0.666992 15.3393 0.666992H16.3392C16.8905 0.666992 17.3391 1.11554 17.3391 1.66689V10.3339C17.3391 10.8852 16.8905 11.3338 16.3392 11.3338ZM11.6727 11.3338H10.6719C10.1205 11.3338 9.67199 10.8852 9.67199 10.3339V4.00059C9.67199 3.44924 10.1205 3.00069 10.6719 3.00069H11.6727C12.224 3.00069 12.6726 3.44924 12.6726 4.00059V10.3339C12.6726 10.8852 12.224 11.3338 11.6727 11.3338ZM7.00529 11.3338H6.00539C5.45404 11.3338 5.00549 10.8852 5.00549 10.3339V6.33339C5.00549 5.78204 5.45404 5.33349 6.00539 5.33349H7.00529C7.55713 5.33349 8.00609 5.78204 8.00609 6.33339V10.3339C8.00609 10.8852 7.55713 11.3338 7.00529 11.3338ZM2.33879 11.3338H1.33889C0.787539 11.3338 0.338989 10.8852 0.338989 10.3339V8.33409C0.338989 7.78225 0.787539 7.33329 1.33889 7.33329H2.33879C2.89014 7.33329 3.33869 7.78225 3.33869 8.33409V10.3339C3.33869 10.8852 2.89014 11.3338 2.33879 11.3338Z" fill="black"/>
</svg>
