<svg width="20" height="14" viewBox="0 0 20 14" fill="none" xmlns="http://www.w3.org/2000/svg">
<path fill-rule="evenodd" clip-rule="evenodd" d="M19.1399 6.22755C18.1904 4.48558 16.8005 3.02323 15.1089 1.98655L15.1889 1.90655L15.2559 1.83955L15.8999 1.19555C16.1733 0.92218 16.1733 0.47892 15.8999 0.20555C15.7686 0.07395 15.5904 0 15.4044 0C15.2185 0 15.0403 0.07396 14.9089 0.20555L13.9669 1.14755L13.8969 1.21755L13.8149 1.29955C12.4875 0.69774 11.0563 0.35818 9.59994 0.29955C5.60471 0.46893 1.98977 2.71764 0.07194 6.22655C-0.02398 6.40019 -0.02398 6.61092 0.07194 6.78455C1.01958 8.5233 2.40586 9.98371 4.09294 11.0205L4.01394 11.1005L3.94694 11.1676L2.90894 12.2045C2.63554 12.4779 2.63554 12.9212 2.90894 13.1945C3.04104 13.324 3.219 13.3959 3.40394 13.3946C3.59061 13.3972 3.77061 13.3252 3.90394 13.1945L5.23794 11.8596L5.30794 11.7906L5.38994 11.7086C6.7189 12.3111 8.15192 12.6507 9.60994 12.7086C14.6099 12.7086 18.0289 8.83155 19.1399 6.78155C19.2344 6.60896 19.2344 6.40014 19.1399 6.22755ZM1.44994 6.55755L1.42094 6.50655L1.44994 6.45655C3.15116 3.5349 6.22225 1.67981 9.59994 1.53355H9.60794C10.7259 1.58793 11.8266 1.83033 12.8639 2.25055L12.7839 2.33155L12.7099 2.40555L11.6889 3.42655L11.6159 3.49955L11.5429 3.57255C11.0747 3.28723 10.5442 3.12009 9.99694 3.08555C9.87027 3.07955 9.74227 3.07955 9.61294 3.08555C9.53694 3.08555 9.47194 3.08555 9.41294 3.08555C7.59625 3.08747 6.09672 4.50671 5.99494 6.32055C5.95528 7.09483 6.18223 7.85932 6.63794 8.48655L6.56594 8.55955L6.49594 8.62955L5.14894 9.96755L5.07894 10.0366L5.00194 10.1146C3.53232 9.25301 2.30883 8.02815 1.44894 6.55755H1.44994ZM11.9239 6.37155C11.9619 6.95167 11.766 7.52283 11.3799 7.95755C10.9961 8.39439 10.4534 8.65943 9.87294 8.69355C9.78271 8.69955 9.69217 8.69955 9.60194 8.69355C9.56794 8.69355 9.52294 8.69355 9.47694 8.69355C9.17153 8.69233 8.86986 8.6262 8.59194 8.49955L8.66894 8.42255L8.74394 8.34755L11.5019 5.58955L11.5749 5.51555L11.6489 5.45055C11.8084 5.73311 11.9023 6.04784 11.9239 6.37155ZM7.29194 6.64255C7.25441 6.0623 7.45067 5.49117 7.83694 5.05655C8.22024 4.61959 8.76268 4.35449 9.34294 4.32055C9.43319 4.31505 9.52369 4.31505 9.61394 4.32055C9.64794 4.32055 9.69394 4.31555 9.73994 4.31555C10.0405 4.31692 10.3375 4.38095 10.6119 4.50355L10.5339 4.58155L10.4589 4.65555L7.70594 7.40855L7.63294 7.48155L7.56294 7.55255C7.40678 7.27284 7.31425 6.96212 7.29194 6.64255ZM17.7629 6.55755C16.0592 9.47928 12.9869 11.3343 9.60794 11.4816V11.4536V11.4806C8.48587 11.4253 7.3811 11.1816 6.33994 10.7596L6.42094 10.6786L6.49494 10.6045L7.52194 9.57755L7.59294 9.50655L7.66594 9.43355C8.13704 9.72319 8.67202 9.89282 9.22394 9.92755C9.35151 9.93454 9.47937 9.93454 9.60694 9.92755C9.68194 9.92755 9.74694 9.93255 9.80694 9.93255C11.6236 9.93063 13.1232 8.51139 13.2249 6.69755C13.2645 5.91848 13.035 5.14949 12.5749 4.51955L12.6489 4.45055L12.7199 4.37955L14.0549 3.04455L14.1239 2.97555L14.2019 2.89755C15.6754 3.75941 16.9021 4.98612 17.7639 6.45955L17.7929 6.50955L17.7629 6.55755Z" fill="#171930"/>
</svg>
