<svg width="13" height="9" viewBox="0 0 13 9" fill="none" xmlns="http://www.w3.org/2000/svg">
<path d="M10.914 0.305678L5.00944 6.21013L2.3033 3.50392C1.89575 3.09637 1.23483 3.0963 0.827199 3.50385C0.419579 3.91148 0.419579 4.57232 0.827199 4.97995L4.27135 8.42424C4.46709 8.61999 4.73256 8.73 5.00936 8.73C5.00943 8.73 5.00936 8.73 5.00943 8.73C5.28624 8.73 5.5517 8.61999 5.74745 8.42431L12.39 1.78185C12.7977 1.37423 12.7977 0.713377 12.39 0.305757C11.9824 -0.101873 11.3216 -0.101942 10.9139 0.305688L10.914 0.305678Z" fill="url(#paint0_linear_9_51)"/>
<defs>
<linearGradient id="paint0_linear_9_51" x1="0.521484" y1="0" x2="0.521484" y2="8.73" gradientUnits="userSpaceOnUse">
<stop stop-color="#FFC92C"/>
<stop offset="1" stop-color="#FD9371"/>
</linearGradient>
</defs>
</svg>
