<svg width="16" height="12" viewBox="0 0 16 12" fill="none" xmlns="http://www.w3.org/2000/svg">
<path fill-rule="evenodd" clip-rule="evenodd" d="M8.00611 11.3308C7.92286 11.3308 7.84184 11.297 7.78381 11.2381L5.77771 9.21579C5.71555 9.15544 5.68143 9.07113 5.68411 8.98449C5.68591 8.89812 5.72363 8.81545 5.78761 8.75769C6.40702 8.23404 7.19489 7.94567 8.00611 7.94567C8.81734 7.94567 9.60521 8.23405 10.2246 8.75769C10.2886 8.81545 10.3263 8.89811 10.3281 8.98449C10.3299 9.07142 10.2955 9.15573 10.2336 9.21579L8.22841 11.2381C8.17038 11.297 8.08936 11.3308 8.00611 11.3308ZM11.5287 7.78209C11.4488 7.78209 11.3724 7.75173 11.3136 7.69659C10.405 6.87537 9.23041 6.42309 8.00611 6.42309C6.78265 6.42399 5.60898 6.87626 4.70131 7.69659C4.64256 7.75172 4.56616 7.78209 4.48621 7.78209C4.40322 7.78209 4.32523 7.74981 4.26661 7.69119L3.10741 6.52029C3.04557 6.45844 3.01201 6.37662 3.01291 6.28989C3.0138 6.20214 3.04896 6.12064 3.11191 6.06039C4.44578 4.82013 6.18423 4.13709 8.00701 4.13709C9.82947 4.13709 11.5682 4.82013 12.903 6.06039C12.966 6.12154 13.0011 6.20304 13.002 6.28989C13.0029 6.37662 12.9693 6.45844 12.9075 6.52029L11.7483 7.69119C11.6897 7.74981 11.6117 7.78209 11.5287 7.78209ZM14.1981 5.08929C14.1172 5.08929 14.0408 5.05797 13.983 5.00109C12.3635 3.46252 10.2408 2.61519 8.00611 2.61519C5.77082 2.61519 3.64786 3.46252 2.02831 5.0011C1.97054 5.05796 1.89414 5.08929 1.81321 5.08929C1.7299 5.08929 1.65191 5.05669 1.59361 4.99749L0.432607 3.82749C0.371347 3.76533 0.338107 3.68382 0.339007 3.59799C0.339907 3.51145 0.374107 3.43058 0.435307 3.37029C2.48252 1.41036 5.17121 0.330994 8.00611 0.330994C10.8413 0.330994 13.5297 1.41037 15.576 3.37029C15.6372 3.43058 15.6714 3.51145 15.6723 3.59799C15.6732 3.68382 15.64 3.76533 15.5787 3.82749L14.4177 4.99749C14.3594 5.05669 14.2814 5.08929 14.1981 5.08929Z" fill="black"/>
</svg>
